<?xml version="1.0" encoding="UTF-8" standalone="no"?>
<svg
   xmlns="http://www.w3.org/2000/svg"
   version="1.1"
   id="Capa_1"
   x="0px"
   y="0px"
   width="48"
   height="48"
   viewBox="0 0 48 48">
    <g id="g4488">
        <path
            d="m 39.713618,23.23767 -5.92054,-5.93753 c -0.391896,-0.39295 -1.027767,-0.39295 -1.419612,0 -0.391896,0.39288 -0.391896,1.03074 0,1.42363 l 4.257947,4.26992 h -25.26381 l 4.257947,-4.26992 c 0.391896,-0.39289 0.391896,-1.03075 0,-1.42363 -0.391897,-0.39295 -1.027768,-0.39295 -1.419664,0 l -5.92054,5.93753 c -0.2089417,0.20993 -0.2979355,0.4879 -0.2839223,0.76183 -0.014013,0.27493 0.074981,0.55284 0.2839223,0.76283 l 5.921533,5.93753 c 0.391897,0.39294 1.027768,0.39294 1.419664,0 0.391897,-0.39289 0.391897,-1.03075 0,-1.42364 l -4.25894,-4.26992 h 25.263758 l -4.257947,4.26992 c -0.391896,0.39289 -0.391896,1.03076 0,1.42364 0.391897,0.39294 1.027715,0.39294 1.419612,0 l 5.921585,-5.93753 c 0.208942,-0.20994 0.297936,-0.4879 0.283975,-0.76283 0.01292,-0.27399 -0.07597,-0.5519 -0.284968,-0.76183 z"
            id="path2"
            style="fill:#0000ff;stroke-width:1" />
    </g>
</svg>