<?xml version="1.0" encoding="UTF-8" standalone="no"?>
<svg
    xmlns="http://www.w3.org/2000/svg"
    viewBox="0 0 48 48"
    id="svg3013"
    version="1.1"
    width="48"
    height="48">
    <g
        id="g4489">
        <path
            d="m 31.9375,28.708 q 0,-0.541 -0.39583,-0.937 L 27.77083,24 31.54167,20.229 q 0.39583,-0.396 0.39583,-0.937 0,-0.563 -0.39583,-0.959 l -1.875,-1.875 q -0.39584,-0.396 -0.95834,-0.396 -0.54166,0 -0.9375,0.396 L 24,20.229 20.22917,16.458 q -0.39584,-0.396 -0.9375,-0.396 -0.5625,0 -0.95834,0.396 l -1.875,1.875 q -0.39583,0.396 -0.39583,0.959 0,0.541 0.39583,0.937 L 20.22917,24 16.45833,27.771 q -0.39583,0.396 -0.39583,0.937 0,0.563 0.39583,0.959 l 1.875,1.875 q 0.39584,0.395 0.95834,0.395 0.54166,0 0.9375,-0.395 L 24,27.771 l 3.77083,3.771 q 0.39584,0.395 0.9375,0.395 0.5625,0 0.95834,-0.395 l 1.875,-1.875 Q 31.9375,29.271 31.9375,28.708 Z M 39.999998,24 q 0,4.354 -2.145833,8.031 Q 35.70833,35.708 32.03125,37.854 28.35417,40 24,40 19.64583,40 15.96875,37.854 12.29167,35.708 10.14584,32.031 8,28.354 8,24 8,19.646 10.14584,15.969 12.29167,12.292 15.96875,10.146 19.64583,8 24,8 q 4.35417,0 8.03125,2.146 3.67708,2.146 5.822915,5.823 2.145833,3.677 2.145833,8.031 z"
            id="path3017"
            style="fill:#800000;stroke-width:1" />
    </g>
</svg>
